<?xml version="1.0" encoding="utf-8" standalone="no"?>
<!DOCTYPE svg PUBLIC "-//W3C//DTD SVG 1.1//EN"
  "http://www.w3.org/Graphics/SVG/1.1/DTD/svg11.dtd">
<svg xmlns:xlink="http://www.w3.org/1999/xlink" width="792pt" height="576pt" viewBox="0 0 792 576" xmlns="http://www.w3.org/2000/svg" version="1.1">
 <metadata>
  <rdf:RDF xmlns:dc="http://purl.org/dc/elements/1.1/" xmlns:cc="http://creativecommons.org/ns#" xmlns:rdf="http://www.w3.org/1999/02/22-rdf-syntax-ns#">
   <cc:Work>
    <dc:type rdf:resource="http://purl.org/dc/dcmitype/StillImage"/>
    <dc:date>2022-04-03T20:56:21.099308</dc:date>
    <dc:format>image/svg+xml</dc:format>
    <dc:creator>
     <cc:Agent>
      <dc:title>Matplotlib v3.5.0, https://matplotlib.org/</dc:title>
     </cc:Agent>
    </dc:creator>
   </cc:Work>
  </rdf:RDF>
 </metadata>
 <defs>
  <style type="text/css">*{stroke-linejoin: round; stroke-linecap: butt}</style>
 </defs>
 <g id="figure_1">
  <g id="patch_1">
   <path d="M 0 576 
L 792 576 
L 792 0 
L 0 0 
z
" style="fill: #ffffff"/>
  </g>
  <g id="axes_1">
   <g id="matplotlib.axis_1"/>
   <g id="matplotlib.axis_2"/>
   <g id="patch_2">
    <path d="M 579.852 286.56 
C 579.852 262.796944 574.982701 239.283988 565.545254 217.475333 
C 556.107806 195.666677 542.300864 176.021385 524.978342 159.754453 
C 507.65582 143.487521 487.182349 130.94136 464.824146 122.891911 
C 442.465944 114.842462 418.69364 111.459161 394.977474 112.951254 
L 405.9 286.56 
L 579.852 286.56 
z
" style="fill: #0173b2; stroke: #ffffff; stroke-linejoin: miter"/>
   </g>
   <g id="patch_3">
    <path d="M 394.977474 112.951254 
C 365.736808 114.790919 337.429393 123.988554 312.691868 139.687462 
C 287.954342 155.386371 267.57936 177.08352 253.464707 202.757972 
L 405.9 286.56 
L 394.977474 112.951254 
z
" style="fill: #de8f05; stroke: #ffffff; stroke-linejoin: miter"/>
   </g>
   <g id="patch_4">
    <path d="M 253.464707 202.757972 
C 241.129389 225.195828 233.89901 250.082948 232.291255 275.63745 
C 230.6835 301.191951 234.737678 326.789036 244.163516 350.595989 
L 405.9 286.56 
L 253.464707 202.757972 
z
" style="fill: #029e73; stroke: #ffffff; stroke-linejoin: miter"/>
   </g>
   <g id="patch_5">
    <path d="M 244.163516 350.595989 
C 249.535232 364.163399 256.592836 377.001135 265.169867 388.806408 
C 273.746898 400.611681 283.77539 411.290942 295.01881 420.59231 
L 405.9 286.56 
L 244.163516 350.595989 
z
" style="fill: #d55e00; stroke: #ffffff; stroke-linejoin: miter"/>
   </g>
   <g id="patch_6">
    <path d="M 295.01881 420.59231 
C 306.26223 429.893677 318.631482 437.743445 331.834826 443.956468 
C 345.038169 450.169492 358.970976 454.696537 373.304628 457.430829 
L 405.9 286.56 
L 295.01881 420.59231 
z
" style="fill: #cc78bc; stroke: #ffffff; stroke-linejoin: miter"/>
   </g>
   <g id="patch_7">
    <path d="M 373.304628 457.430829 
C 380.464403 458.796629 387.702948 459.711071 394.977446 460.168744 
C 402.251943 460.626418 409.54802 460.626418 416.822518 460.168747 
L 405.9 286.56 
L 373.304628 457.430829 
z
" style="fill: #ca9161; stroke: #ffffff; stroke-linejoin: miter"/>
   </g>
   <g id="patch_8">
    <path d="M 416.822518 460.168747 
C 424.097016 459.711075 431.335561 458.796635 438.495336 457.430835 
C 445.65511 456.065036 452.721968 454.250576 459.654106 451.998189 
L 405.9 286.56 
L 416.822518 460.168747 
z
" style="fill: #fbafe4; stroke: #ffffff; stroke-linejoin: miter"/>
   </g>
   <g id="patch_9">
    <path d="M 459.654106 451.998189 
C 466.586243 449.745802 473.369965 447.059938 479.965141 443.956484 
C 486.560318 440.85303 492.953919 437.338119 499.108125 433.432542 
L 405.9 286.56 
L 459.654106 451.998189 
z
" style="fill: #949494; stroke: #ffffff; stroke-linejoin: miter"/>
   </g>
   <g id="patch_10">
    <path d="M 499.108125 433.432542 
C 505.262331 429.526966 511.164982 425.23844 516.781162 420.592333 
C 522.397341 415.946226 527.715953 410.951718 532.705536 405.638354 
L 405.9 286.56 
L 499.108125 433.432542 
z
" style="fill: #ece133; stroke: #ffffff; stroke-linejoin: miter"/>
   </g>
   <g id="patch_11">
    <path d="M 532.705536 405.638354 
C 535.199712 402.982327 537.609825 400.248591 539.932306 397.441195 
C 542.254787 394.633798 544.488491 391.754125 546.630111 388.806438 
L 405.9 286.56 
L 532.705536 405.638354 
z
" style="fill: #56b4e9; stroke: #ffffff; stroke-linejoin: miter"/>
   </g>
   <g id="patch_12">
    <path d="M 546.630111 388.806438 
C 548.771732 385.858751 550.820212 382.844505 552.772519 379.768161 
C 554.724827 376.691818 556.579999 373.554895 558.335289 370.362035 
L 405.9 286.56 
L 546.630111 388.806438 
z
" style="fill: #0173b2; stroke: #ffffff; stroke-linejoin: miter"/>
   </g>
   <g id="patch_13">
    <path d="M 558.335289 370.362035 
C 560.090579 367.169175 561.745121 363.921955 563.296466 360.62518 
C 564.847811 357.328405 566.295193 353.983703 567.636471 350.596024 
L 405.9 286.56 
L 558.335289 370.362035 
z
" style="fill: #de8f05; stroke: #ffffff; stroke-linejoin: miter"/>
   </g>
   <g id="patch_14">
    <path d="M 567.636471 350.596024 
C 568.977748 347.208344 570.212259 343.77936 571.338176 340.314146 
C 572.464093 336.848932 573.48086 333.349199 574.386972 329.820126 
L 405.9 286.56 
L 567.636471 350.596024 
z
" style="fill: #029e73; stroke: #ffffff; stroke-linejoin: miter"/>
   </g>
   <g id="patch_15">
    <path d="M 574.386972 329.820126 
C 575.293085 326.291053 576.088095 322.734382 576.770827 319.155378 
C 577.45356 315.576373 578.023676 311.976802 578.480334 308.36199 
L 405.9 286.56 
L 574.386972 329.820126 
z
" style="fill: #d55e00; stroke: #ffffff; stroke-linejoin: miter"/>
   </g>
   <g id="patch_16">
    <path d="M 578.480334 308.36199 
C 578.936991 304.747179 579.279964 301.118913 579.508744 297.482561 
C 579.737524 293.846209 579.851999 290.203566 579.852 286.560024 
L 405.9 286.56 
L 578.480334 308.36199 
z
" style="fill: #cc78bc; stroke: #ffffff; stroke-linejoin: miter"/>
   </g>
   <g id="text_1">
    <!-- 26% -->
    <g style="fill: #262626" transform="translate(464.011068 213.787922)scale(0.12 -0.12)">
     <defs>
      <path id="DejaVuSans-32" d="M 1228 531 
L 3431 531 
L 3431 0 
L 469 0 
L 469 531 
Q 828 903 1448 1529 
Q 2069 2156 2228 2338 
Q 2531 2678 2651 2914 
Q 2772 3150 2772 3378 
Q 2772 3750 2511 3984 
Q 2250 4219 1831 4219 
Q 1534 4219 1204 4116 
Q 875 4013 500 3803 
L 500 4441 
Q 881 4594 1212 4672 
Q 1544 4750 1819 4750 
Q 2544 4750 2975 4387 
Q 3406 4025 3406 3419 
Q 3406 3131 3298 2873 
Q 3191 2616 2906 2266 
Q 2828 2175 2409 1742 
Q 1991 1309 1228 531 
z
" transform="scale(0.015625)"/>
      <path id="DejaVuSans-36" d="M 2113 2584 
Q 1688 2584 1439 2293 
Q 1191 2003 1191 1497 
Q 1191 994 1439 701 
Q 1688 409 2113 409 
Q 2538 409 2786 701 
Q 3034 994 3034 1497 
Q 3034 2003 2786 2293 
Q 2538 2584 2113 2584 
z
M 3366 4563 
L 3366 3988 
Q 3128 4100 2886 4159 
Q 2644 4219 2406 4219 
Q 1781 4219 1451 3797 
Q 1122 3375 1075 2522 
Q 1259 2794 1537 2939 
Q 1816 3084 2150 3084 
Q 2853 3084 3261 2657 
Q 3669 2231 3669 1497 
Q 3669 778 3244 343 
Q 2819 -91 2113 -91 
Q 1303 -91 875 529 
Q 447 1150 447 2328 
Q 447 3434 972 4092 
Q 1497 4750 2381 4750 
Q 2619 4750 2861 4703 
Q 3103 4656 3366 4563 
z
" transform="scale(0.015625)"/>
      <path id="DejaVuSans-25" d="M 4653 2053 
Q 4381 2053 4226 1822 
Q 4072 1591 4072 1178 
Q 4072 772 4226 539 
Q 4381 306 4653 306 
Q 4919 306 5073 539 
Q 5228 772 5228 1178 
Q 5228 1588 5073 1820 
Q 4919 2053 4653 2053 
z
M 4653 2450 
Q 5147 2450 5437 2106 
Q 5728 1763 5728 1178 
Q 5728 594 5436 251 
Q 5144 -91 4653 -91 
Q 4153 -91 3862 251 
Q 3572 594 3572 1178 
Q 3572 1766 3864 2108 
Q 4156 2450 4653 2450 
z
M 1428 4353 
Q 1159 4353 1004 4120 
Q 850 3888 850 3481 
Q 850 3069 1003 2837 
Q 1156 2606 1428 2606 
Q 1700 2606 1854 2837 
Q 2009 3069 2009 3481 
Q 2009 3884 1853 4118 
Q 1697 4353 1428 4353 
z
M 4250 4750 
L 4750 4750 
L 1831 -91 
L 1331 -91 
L 4250 4750 
z
M 1428 4750 
Q 1922 4750 2215 4408 
Q 2509 4066 2509 3481 
Q 2509 2891 2217 2550 
Q 1925 2209 1428 2209 
Q 931 2209 642 2551 
Q 353 2894 353 3481 
Q 353 4063 643 4406 
Q 934 4750 1428 4750 
z
" transform="scale(0.015625)"/>
     </defs>
     <use xlink:href="#DejaVuSans-32"/>
     <use xlink:href="#DejaVuSans-36" x="63.623047"/>
     <use xlink:href="#DejaVuSans-25" x="127.246094"/>
    </g>
   </g>
   <g id="text_2">
    <!-- 16% -->
    <g style="fill: #262626" transform="translate(336.639183 201.747727)scale(0.12 -0.12)">
     <defs>
      <path id="DejaVuSans-31" d="M 794 531 
L 1825 531 
L 1825 4091 
L 703 3866 
L 703 4441 
L 1819 4666 
L 2450 4666 
L 2450 531 
L 3481 531 
L 3481 0 
L 794 0 
L 794 531 
z
" transform="scale(0.015625)"/>
     </defs>
     <use xlink:href="#DejaVuSans-31"/>
     <use xlink:href="#DejaVuSans-36" x="63.623047"/>
     <use xlink:href="#DejaVuSans-25" x="127.246094"/>
    </g>
   </g>
   <g id="text_3">
    <!-- 14% -->
    <g style="fill: #262626" transform="translate(288.398816 283.31772)scale(0.12 -0.12)">
     <defs>
      <path id="DejaVuSans-34" d="M 2419 4116 
L 825 1625 
L 2419 1625 
L 2419 4116 
z
M 2253 4666 
L 3047 4666 
L 3047 1625 
L 3713 1625 
L 3713 1100 
L 3047 1100 
L 3047 0 
L 2419 0 
L 2419 1100 
L 313 1100 
L 313 1709 
L 2253 4666 
z
" transform="scale(0.015625)"/>
     </defs>
     <use xlink:href="#DejaVuSans-31"/>
     <use xlink:href="#DejaVuSans-34" x="63.623047"/>
     <use xlink:href="#DejaVuSans-25" x="127.246094"/>
    </g>
   </g>
   <g id="text_4">
    <!-- 8% -->
    <g style="fill: #262626" transform="translate(311.943483 351.219095)scale(0.12 -0.12)">
     <defs>
      <path id="DejaVuSans-38" d="M 2034 2216 
Q 1584 2216 1326 1975 
Q 1069 1734 1069 1313 
Q 1069 891 1326 650 
Q 1584 409 2034 409 
Q 2484 409 2743 651 
Q 3003 894 3003 1313 
Q 3003 1734 2745 1975 
Q 2488 2216 2034 2216 
z
M 1403 2484 
Q 997 2584 770 2862 
Q 544 3141 544 3541 
Q 544 4100 942 4425 
Q 1341 4750 2034 4750 
Q 2731 4750 3128 4425 
Q 3525 4100 3525 3541 
Q 3525 3141 3298 2862 
Q 3072 2584 2669 2484 
Q 3125 2378 3379 2068 
Q 3634 1759 3634 1313 
Q 3634 634 3220 271 
Q 2806 -91 2034 -91 
Q 1263 -91 848 271 
Q 434 634 434 1313 
Q 434 1759 690 2068 
Q 947 2378 1403 2484 
z
M 1172 3481 
Q 1172 3119 1398 2916 
Q 1625 2713 2034 2713 
Q 2441 2713 2670 2916 
Q 2900 3119 2900 3481 
Q 2900 3844 2670 4047 
Q 2441 4250 2034 4250 
Q 1625 4250 1398 4047 
Q 1172 3844 1172 3481 
z
" transform="scale(0.015625)"/>
     </defs>
     <use xlink:href="#DejaVuSans-38"/>
     <use xlink:href="#DejaVuSans-25" x="63.623047"/>
    </g>
   </g>
   <g id="text_5">
    <!-- 8% -->
    <g style="fill: #262626" transform="translate(351.942458 384.309131)scale(0.12 -0.12)">
     <use xlink:href="#DejaVuSans-38"/>
     <use xlink:href="#DejaVuSans-25" x="63.623047"/>
    </g>
   </g>
   <g id="text_6">
    <!-- 4% -->
    <g style="fill: #262626" transform="translate(389.82803 394.036497)scale(0.12 -0.12)">
     <use xlink:href="#DejaVuSans-34"/>
     <use xlink:href="#DejaVuSans-25" x="63.623047"/>
    </g>
   </g>
   <g id="text_7">
    <!-- 4% -->
    <g style="fill: #262626" transform="translate(415.938764 392.393751)scale(0.12 -0.12)">
     <use xlink:href="#DejaVuSans-34"/>
     <use xlink:href="#DejaVuSans-25" x="63.623047"/>
    </g>
   </g>
   <g id="text_8">
    <!-- 4% -->
    <g style="fill: #262626" transform="translate(440.820647 384.30914)scale(0.12 -0.12)">
     <use xlink:href="#DejaVuSans-34"/>
     <use xlink:href="#DejaVuSans-25" x="63.623047"/>
    </g>
   </g>
   <g id="text_9">
    <!-- 4% -->
    <g style="fill: #262626" transform="translate(462.91026 370.29065)scale(0.12 -0.12)">
     <use xlink:href="#DejaVuSans-34"/>
     <use xlink:href="#DejaVuSans-25" x="63.623047"/>
    </g>
   </g>
   <g id="text_10">
    <!-- 2% -->
    <g style="fill: #262626" transform="translate(476.800946 356.399967)scale(0.12 -0.12)">
     <use xlink:href="#DejaVuSans-32"/>
     <use xlink:href="#DejaVuSans-25" x="63.623047"/>
    </g>
   </g>
   <g id="text_11">
    <!-- 2% -->
    <g style="fill: #262626" transform="translate(484.505074 345.796147)scale(0.12 -0.12)">
     <use xlink:href="#DejaVuSans-32"/>
     <use xlink:href="#DejaVuSans-25" x="63.623047"/>
    </g>
   </g>
   <g id="text_12">
    <!-- 2% -->
    <g style="fill: #262626" transform="translate(490.819442 334.310358)scale(0.12 -0.12)">
     <use xlink:href="#DejaVuSans-32"/>
     <use xlink:href="#DejaVuSans-25" x="63.623047"/>
    </g>
   </g>
   <g id="text_13">
    <!-- 2% -->
    <g style="fill: #262626" transform="translate(495.644468 322.123738)scale(0.12 -0.12)">
     <use xlink:href="#DejaVuSans-32"/>
     <use xlink:href="#DejaVuSans-25" x="63.623047"/>
    </g>
   </g>
   <g id="text_14">
    <!-- 2% -->
    <g style="fill: #262626" transform="translate(498.904059 309.428477)scale(0.12 -0.12)">
     <use xlink:href="#DejaVuSans-32"/>
     <use xlink:href="#DejaVuSans-25" x="63.623047"/>
    </g>
   </g>
   <g id="text_15">
    <!-- 2% -->
    <g style="fill: #262626" transform="translate(500.546809 296.424786)scale(0.12 -0.12)">
     <use xlink:href="#DejaVuSans-32"/>
     <use xlink:href="#DejaVuSans-25" x="63.623047"/>
    </g>
   </g>
   <g id="legend_1">
    <g id="patch_17">
     <path d="M 319.394531 320.109063 
L 615.64 320.109063 
Q 617.84 320.109063 617.84 317.909063 
L 617.84 76.82 
Q 617.84 74.62 615.64 74.62 
L 319.394531 74.62 
Q 317.194531 74.62 317.194531 76.82 
L 317.194531 317.909063 
Q 317.194531 320.109063 319.394531 320.109063 
z
" style="fill: #eaeaf2; opacity: 0.8; stroke: #cccccc; stroke-linejoin: miter"/>
    </g>
    <g id="patch_18">
     <path d="M 321.594531 87.378281 
L 343.594531 87.378281 
L 343.594531 79.678281 
L 321.594531 79.678281 
z
" style="fill: #0173b2; stroke: #ffffff; stroke-linejoin: miter"/>
    </g>
    <g id="text_16">
     <!-- 3D microscopy -->
     <g style="fill: #262626" transform="translate(352.394531 87.378281)scale(0.11 -0.11)">
      <defs>
       <path id="DejaVuSans-33" d="M 2597 2516 
Q 3050 2419 3304 2112 
Q 3559 1806 3559 1356 
Q 3559 666 3084 287 
Q 2609 -91 1734 -91 
Q 1441 -91 1130 -33 
Q 819 25 488 141 
L 488 750 
Q 750 597 1062 519 
Q 1375 441 1716 441 
Q 2309 441 2620 675 
Q 2931 909 2931 1356 
Q 2931 1769 2642 2001 
Q 2353 2234 1838 2234 
L 1294 2234 
L 1294 2753 
L 1863 2753 
Q 2328 2753 2575 2939 
Q 2822 3125 2822 3475 
Q 2822 3834 2567 4026 
Q 2313 4219 1838 4219 
Q 1578 4219 1281 4162 
Q 984 4106 628 3988 
L 628 4550 
Q 988 4650 1302 4700 
Q 1616 4750 1894 4750 
Q 2613 4750 3031 4423 
Q 3450 4097 3450 3541 
Q 3450 3153 3228 2886 
Q 3006 2619 2597 2516 
z
" transform="scale(0.015625)"/>
       <path id="DejaVuSans-44" d="M 1259 4147 
L 1259 519 
L 2022 519 
Q 2988 519 3436 956 
Q 3884 1394 3884 2338 
Q 3884 3275 3436 3711 
Q 2988 4147 2022 4147 
L 1259 4147 
z
M 628 4666 
L 1925 4666 
Q 3281 4666 3915 4102 
Q 4550 3538 4550 2338 
Q 4550 1131 3912 565 
Q 3275 0 1925 0 
L 628 0 
L 628 4666 
z
" transform="scale(0.015625)"/>
       <path id="DejaVuSans-20" transform="scale(0.015625)"/>
       <path id="DejaVuSans-6d" d="M 3328 2828 
Q 3544 3216 3844 3400 
Q 4144 3584 4550 3584 
Q 5097 3584 5394 3201 
Q 5691 2819 5691 2113 
L 5691 0 
L 5113 0 
L 5113 2094 
Q 5113 2597 4934 2840 
Q 4756 3084 4391 3084 
Q 3944 3084 3684 2787 
Q 3425 2491 3425 1978 
L 3425 0 
L 2847 0 
L 2847 2094 
Q 2847 2600 2669 2842 
Q 2491 3084 2119 3084 
Q 1678 3084 1418 2786 
Q 1159 2488 1159 1978 
L 1159 0 
L 581 0 
L 581 3500 
L 1159 3500 
L 1159 2956 
Q 1356 3278 1631 3431 
Q 1906 3584 2284 3584 
Q 2666 3584 2933 3390 
Q 3200 3197 3328 2828 
z
" transform="scale(0.015625)"/>
       <path id="DejaVuSans-69" d="M 603 3500 
L 1178 3500 
L 1178 0 
L 603 0 
L 603 3500 
z
M 603 4863 
L 1178 4863 
L 1178 4134 
L 603 4134 
L 603 4863 
z
" transform="scale(0.015625)"/>
       <path id="DejaVuSans-63" d="M 3122 3366 
L 3122 2828 
Q 2878 2963 2633 3030 
Q 2388 3097 2138 3097 
Q 1578 3097 1268 2742 
Q 959 2388 959 1747 
Q 959 1106 1268 751 
Q 1578 397 2138 397 
Q 2388 397 2633 464 
Q 2878 531 3122 666 
L 3122 134 
Q 2881 22 2623 -34 
Q 2366 -91 2075 -91 
Q 1284 -91 818 406 
Q 353 903 353 1747 
Q 353 2603 823 3093 
Q 1294 3584 2113 3584 
Q 2378 3584 2631 3529 
Q 2884 3475 3122 3366 
z
" transform="scale(0.015625)"/>
       <path id="DejaVuSans-72" d="M 2631 2963 
Q 2534 3019 2420 3045 
Q 2306 3072 2169 3072 
Q 1681 3072 1420 2755 
Q 1159 2438 1159 1844 
L 1159 0 
L 581 0 
L 581 3500 
L 1159 3500 
L 1159 2956 
Q 1341 3275 1631 3429 
Q 1922 3584 2338 3584 
Q 2397 3584 2469 3576 
Q 2541 3569 2628 3553 
L 2631 2963 
z
" transform="scale(0.015625)"/>
       <path id="DejaVuSans-6f" d="M 1959 3097 
Q 1497 3097 1228 2736 
Q 959 2375 959 1747 
Q 959 1119 1226 758 
Q 1494 397 1959 397 
Q 2419 397 2687 759 
Q 2956 1122 2956 1747 
Q 2956 2369 2687 2733 
Q 2419 3097 1959 3097 
z
M 1959 3584 
Q 2709 3584 3137 3096 
Q 3566 2609 3566 1747 
Q 3566 888 3137 398 
Q 2709 -91 1959 -91 
Q 1206 -91 779 398 
Q 353 888 353 1747 
Q 353 2609 779 3096 
Q 1206 3584 1959 3584 
z
" transform="scale(0.015625)"/>
       <path id="DejaVuSans-73" d="M 2834 3397 
L 2834 2853 
Q 2591 2978 2328 3040 
Q 2066 3103 1784 3103 
Q 1356 3103 1142 2972 
Q 928 2841 928 2578 
Q 928 2378 1081 2264 
Q 1234 2150 1697 2047 
L 1894 2003 
Q 2506 1872 2764 1633 
Q 3022 1394 3022 966 
Q 3022 478 2636 193 
Q 2250 -91 1575 -91 
Q 1294 -91 989 -36 
Q 684 19 347 128 
L 347 722 
Q 666 556 975 473 
Q 1284 391 1588 391 
Q 1994 391 2212 530 
Q 2431 669 2431 922 
Q 2431 1156 2273 1281 
Q 2116 1406 1581 1522 
L 1381 1569 
Q 847 1681 609 1914 
Q 372 2147 372 2553 
Q 372 3047 722 3315 
Q 1072 3584 1716 3584 
Q 2034 3584 2315 3537 
Q 2597 3491 2834 3397 
z
" transform="scale(0.015625)"/>
       <path id="DejaVuSans-70" d="M 1159 525 
L 1159 -1331 
L 581 -1331 
L 581 3500 
L 1159 3500 
L 1159 2969 
Q 1341 3281 1617 3432 
Q 1894 3584 2278 3584 
Q 2916 3584 3314 3078 
Q 3713 2572 3713 1747 
Q 3713 922 3314 415 
Q 2916 -91 2278 -91 
Q 1894 -91 1617 61 
Q 1341 213 1159 525 
z
M 3116 1747 
Q 3116 2381 2855 2742 
Q 2594 3103 2138 3103 
Q 1681 3103 1420 2742 
Q 1159 2381 1159 1747 
Q 1159 1113 1420 752 
Q 1681 391 2138 391 
Q 2594 391 2855 752 
Q 3116 1113 3116 1747 
z
" transform="scale(0.015625)"/>
       <path id="DejaVuSans-79" d="M 2059 -325 
Q 1816 -950 1584 -1140 
Q 1353 -1331 966 -1331 
L 506 -1331 
L 506 -850 
L 844 -850 
Q 1081 -850 1212 -737 
Q 1344 -625 1503 -206 
L 1606 56 
L 191 3500 
L 800 3500 
L 1894 763 
L 2988 3500 
L 3597 3500 
L 2059 -325 
z
" transform="scale(0.015625)"/>
      </defs>
      <use xlink:href="#DejaVuSans-33"/>
      <use xlink:href="#DejaVuSans-44" x="63.623047"/>
      <use xlink:href="#DejaVuSans-20" x="140.625"/>
      <use xlink:href="#DejaVuSans-6d" x="172.412109"/>
      <use xlink:href="#DejaVuSans-69" x="269.824219"/>
      <use xlink:href="#DejaVuSans-63" x="297.607422"/>
      <use xlink:href="#DejaVuSans-72" x="352.587891"/>
      <use xlink:href="#DejaVuSans-6f" x="391.451172"/>
      <use xlink:href="#DejaVuSans-73" x="452.632812"/>
      <use xlink:href="#DejaVuSans-63" x="504.732422"/>
      <use xlink:href="#DejaVuSans-6f" x="559.712891"/>
      <use xlink:href="#DejaVuSans-70" x="620.894531"/>
      <use xlink:href="#DejaVuSans-79" x="684.371094"/>
     </g>
    </g>
    <g id="patch_19">
     <path d="M 321.594531 103.524219 
L 343.594531 103.524219 
L 343.594531 95.824219 
L 321.594531 95.824219 
z
" style="fill: #de8f05; stroke: #ffffff; stroke-linejoin: miter"/>
    </g>
    <g id="text_17">
     <!-- Confocal microscopy -->
     <g style="fill: #262626" transform="translate(352.394531 103.524219)scale(0.11 -0.11)">
      <defs>
       <path id="DejaVuSans-43" d="M 4122 4306 
L 4122 3641 
Q 3803 3938 3442 4084 
Q 3081 4231 2675 4231 
Q 1875 4231 1450 3742 
Q 1025 3253 1025 2328 
Q 1025 1406 1450 917 
Q 1875 428 2675 428 
Q 3081 428 3442 575 
Q 3803 722 4122 1019 
L 4122 359 
Q 3791 134 3420 21 
Q 3050 -91 2638 -91 
Q 1578 -91 968 557 
Q 359 1206 359 2328 
Q 359 3453 968 4101 
Q 1578 4750 2638 4750 
Q 3056 4750 3426 4639 
Q 3797 4528 4122 4306 
z
" transform="scale(0.015625)"/>
       <path id="DejaVuSans-6e" d="M 3513 2113 
L 3513 0 
L 2938 0 
L 2938 2094 
Q 2938 2591 2744 2837 
Q 2550 3084 2163 3084 
Q 1697 3084 1428 2787 
Q 1159 2491 1159 1978 
L 1159 0 
L 581 0 
L 581 3500 
L 1159 3500 
L 1159 2956 
Q 1366 3272 1645 3428 
Q 1925 3584 2291 3584 
Q 2894 3584 3203 3211 
Q 3513 2838 3513 2113 
z
" transform="scale(0.015625)"/>
       <path id="DejaVuSans-66" d="M 2375 4863 
L 2375 4384 
L 1825 4384 
Q 1516 4384 1395 4259 
Q 1275 4134 1275 3809 
L 1275 3500 
L 2222 3500 
L 2222 3053 
L 1275 3053 
L 1275 0 
L 697 0 
L 697 3053 
L 147 3053 
L 147 3500 
L 697 3500 
L 697 3744 
Q 697 4328 969 4595 
Q 1241 4863 1831 4863 
L 2375 4863 
z
" transform="scale(0.015625)"/>
       <path id="DejaVuSans-61" d="M 2194 1759 
Q 1497 1759 1228 1600 
Q 959 1441 959 1056 
Q 959 750 1161 570 
Q 1363 391 1709 391 
Q 2188 391 2477 730 
Q 2766 1069 2766 1631 
L 2766 1759 
L 2194 1759 
z
M 3341 1997 
L 3341 0 
L 2766 0 
L 2766 531 
Q 2569 213 2275 61 
Q 1981 -91 1556 -91 
Q 1019 -91 701 211 
Q 384 513 384 1019 
Q 384 1609 779 1909 
Q 1175 2209 1959 2209 
L 2766 2209 
L 2766 2266 
Q 2766 2663 2505 2880 
Q 2244 3097 1772 3097 
Q 1472 3097 1187 3025 
Q 903 2953 641 2809 
L 641 3341 
Q 956 3463 1253 3523 
Q 1550 3584 1831 3584 
Q 2591 3584 2966 3190 
Q 3341 2797 3341 1997 
z
" transform="scale(0.015625)"/>
       <path id="DejaVuSans-6c" d="M 603 4863 
L 1178 4863 
L 1178 0 
L 603 0 
L 603 4863 
z
" transform="scale(0.015625)"/>
      </defs>
      <use xlink:href="#DejaVuSans-43"/>
      <use xlink:href="#DejaVuSans-6f" x="69.824219"/>
      <use xlink:href="#DejaVuSans-6e" x="131.005859"/>
      <use xlink:href="#DejaVuSans-66" x="194.384766"/>
      <use xlink:href="#DejaVuSans-6f" x="229.589844"/>
      <use xlink:href="#DejaVuSans-63" x="290.771484"/>
      <use xlink:href="#DejaVuSans-61" x="345.751953"/>
      <use xlink:href="#DejaVuSans-6c" x="407.03125"/>
      <use xlink:href="#DejaVuSans-20" x="434.814453"/>
      <use xlink:href="#DejaVuSans-6d" x="466.601562"/>
      <use xlink:href="#DejaVuSans-69" x="564.013672"/>
      <use xlink:href="#DejaVuSans-63" x="591.796875"/>
      <use xlink:href="#DejaVuSans-72" x="646.777344"/>
      <use xlink:href="#DejaVuSans-6f" x="685.640625"/>
      <use xlink:href="#DejaVuSans-73" x="746.822266"/>
      <use xlink:href="#DejaVuSans-63" x="798.921875"/>
      <use xlink:href="#DejaVuSans-6f" x="853.902344"/>
      <use xlink:href="#DejaVuSans-70" x="915.083984"/>
      <use xlink:href="#DejaVuSans-79" x="978.560547"/>
     </g>
    </g>
    <g id="patch_20">
     <path d="M 321.594531 119.670156 
L 343.594531 119.670156 
L 343.594531 111.970156 
L 321.594531 111.970156 
z
" style="fill: #029e73; stroke: #ffffff; stroke-linejoin: miter"/>
    </g>
    <g id="text_18">
     <!-- Cryo-electron microscopy -->
     <g style="fill: #262626" transform="translate(352.394531 119.670156)scale(0.11 -0.11)">
      <defs>
       <path id="DejaVuSans-2d" d="M 313 2009 
L 1997 2009 
L 1997 1497 
L 313 1497 
L 313 2009 
z
" transform="scale(0.015625)"/>
       <path id="DejaVuSans-65" d="M 3597 1894 
L 3597 1613 
L 953 1613 
Q 991 1019 1311 708 
Q 1631 397 2203 397 
Q 2534 397 2845 478 
Q 3156 559 3463 722 
L 3463 178 
Q 3153 47 2828 -22 
Q 2503 -91 2169 -91 
Q 1331 -91 842 396 
Q 353 884 353 1716 
Q 353 2575 817 3079 
Q 1281 3584 2069 3584 
Q 2775 3584 3186 3129 
Q 3597 2675 3597 1894 
z
M 3022 2063 
Q 3016 2534 2758 2815 
Q 2500 3097 2075 3097 
Q 1594 3097 1305 2825 
Q 1016 2553 972 2059 
L 3022 2063 
z
" transform="scale(0.015625)"/>
       <path id="DejaVuSans-74" d="M 1172 4494 
L 1172 3500 
L 2356 3500 
L 2356 3053 
L 1172 3053 
L 1172 1153 
Q 1172 725 1289 603 
Q 1406 481 1766 481 
L 2356 481 
L 2356 0 
L 1766 0 
Q 1100 0 847 248 
Q 594 497 594 1153 
L 594 3053 
L 172 3053 
L 172 3500 
L 594 3500 
L 594 4494 
L 1172 4494 
z
" transform="scale(0.015625)"/>
      </defs>
      <use xlink:href="#DejaVuSans-43"/>
      <use xlink:href="#DejaVuSans-72" x="69.824219"/>
      <use xlink:href="#DejaVuSans-79" x="110.9375"/>
      <use xlink:href="#DejaVuSans-6f" x="170.117188"/>
      <use xlink:href="#DejaVuSans-2d" x="233.173828"/>
      <use xlink:href="#DejaVuSans-65" x="269.257812"/>
      <use xlink:href="#DejaVuSans-6c" x="330.78125"/>
      <use xlink:href="#DejaVuSans-65" x="358.564453"/>
      <use xlink:href="#DejaVuSans-63" x="420.087891"/>
      <use xlink:href="#DejaVuSans-74" x="475.068359"/>
      <use xlink:href="#DejaVuSans-72" x="514.277344"/>
      <use xlink:href="#DejaVuSans-6f" x="553.140625"/>
      <use xlink:href="#DejaVuSans-6e" x="614.322266"/>
      <use xlink:href="#DejaVuSans-20" x="677.701172"/>
      <use xlink:href="#DejaVuSans-6d" x="709.488281"/>
      <use xlink:href="#DejaVuSans-69" x="806.900391"/>
      <use xlink:href="#DejaVuSans-63" x="834.683594"/>
      <use xlink:href="#DejaVuSans-72" x="889.664062"/>
      <use xlink:href="#DejaVuSans-6f" x="928.527344"/>
      <use xlink:href="#DejaVuSans-73" x="989.708984"/>
      <use xlink:href="#DejaVuSans-63" x="1041.808594"/>
      <use xlink:href="#DejaVuSans-6f" x="1096.789062"/>
      <use xlink:href="#DejaVuSans-70" x="1157.970703"/>
      <use xlink:href="#DejaVuSans-79" x="1221.447266"/>
     </g>
    </g>
    <g id="patch_21">
     <path d="M 321.594531 135.816094 
L 343.594531 135.816094 
L 343.594531 128.116094 
L 321.594531 128.116094 
z
" style="fill: #d55e00; stroke: #ffffff; stroke-linejoin: miter"/>
    </g>
    <g id="text_19">
     <!-- CT -->
     <g style="fill: #262626" transform="translate(352.394531 135.816094)scale(0.11 -0.11)">
      <defs>
       <path id="DejaVuSans-54" d="M -19 4666 
L 3928 4666 
L 3928 4134 
L 2272 4134 
L 2272 0 
L 1638 0 
L 1638 4134 
L -19 4134 
L -19 4666 
z
" transform="scale(0.015625)"/>
      </defs>
      <use xlink:href="#DejaVuSans-43"/>
      <use xlink:href="#DejaVuSans-54" x="69.824219"/>
     </g>
    </g>
    <g id="patch_22">
     <path d="M 321.594531 151.962031 
L 343.594531 151.962031 
L 343.594531 144.262031 
L 321.594531 144.262031 
z
" style="fill: #cc78bc; stroke: #ffffff; stroke-linejoin: miter"/>
    </g>
    <g id="text_20">
     <!-- CT, Dermatoscopy -->
     <g style="fill: #262626" transform="translate(352.394531 151.962031)scale(0.11 -0.11)">
      <defs>
       <path id="DejaVuSans-2c" d="M 750 794 
L 1409 794 
L 1409 256 
L 897 -744 
L 494 -744 
L 750 256 
L 750 794 
z
" transform="scale(0.015625)"/>
      </defs>
      <use xlink:href="#DejaVuSans-43"/>
      <use xlink:href="#DejaVuSans-54" x="69.824219"/>
      <use xlink:href="#DejaVuSans-2c" x="130.908203"/>
      <use xlink:href="#DejaVuSans-20" x="162.695312"/>
      <use xlink:href="#DejaVuSans-44" x="194.482422"/>
      <use xlink:href="#DejaVuSans-65" x="271.484375"/>
      <use xlink:href="#DejaVuSans-72" x="333.007812"/>
      <use xlink:href="#DejaVuSans-6d" x="372.371094"/>
      <use xlink:href="#DejaVuSans-61" x="469.783203"/>
      <use xlink:href="#DejaVuSans-74" x="531.0625"/>
      <use xlink:href="#DejaVuSans-6f" x="570.271484"/>
      <use xlink:href="#DejaVuSans-73" x="631.453125"/>
      <use xlink:href="#DejaVuSans-63" x="683.552734"/>
      <use xlink:href="#DejaVuSans-6f" x="738.533203"/>
      <use xlink:href="#DejaVuSans-70" x="799.714844"/>
      <use xlink:href="#DejaVuSans-79" x="863.191406"/>
     </g>
    </g>
    <g id="patch_23">
     <path d="M 321.594531 168.107969 
L 343.594531 168.107969 
L 343.594531 160.407969 
L 321.594531 160.407969 
z
" style="fill: #ca9161; stroke: #ffffff; stroke-linejoin: miter"/>
    </g>
    <g id="text_21">
     <!-- Dermatoscopy -->
     <g style="fill: #262626" transform="translate(352.394531 168.107969)scale(0.11 -0.11)">
      <use xlink:href="#DejaVuSans-44"/>
      <use xlink:href="#DejaVuSans-65" x="77.001953"/>
      <use xlink:href="#DejaVuSans-72" x="138.525391"/>
      <use xlink:href="#DejaVuSans-6d" x="177.888672"/>
      <use xlink:href="#DejaVuSans-61" x="275.300781"/>
      <use xlink:href="#DejaVuSans-74" x="336.580078"/>
      <use xlink:href="#DejaVuSans-6f" x="375.789062"/>
      <use xlink:href="#DejaVuSans-73" x="436.970703"/>
      <use xlink:href="#DejaVuSans-63" x="489.070312"/>
      <use xlink:href="#DejaVuSans-6f" x="544.050781"/>
      <use xlink:href="#DejaVuSans-70" x="605.232422"/>
      <use xlink:href="#DejaVuSans-79" x="668.708984"/>
     </g>
    </g>
    <g id="patch_24">
     <path d="M 321.594531 184.253906 
L 343.594531 184.253906 
L 343.594531 176.553906 
L 321.594531 176.553906 
z
" style="fill: #fbafe4; stroke: #ffffff; stroke-linejoin: miter"/>
    </g>
    <g id="text_22">
     <!-- MRI -->
     <g style="fill: #262626" transform="translate(352.394531 184.253906)scale(0.11 -0.11)">
      <defs>
       <path id="DejaVuSans-4d" d="M 628 4666 
L 1569 4666 
L 2759 1491 
L 3956 4666 
L 4897 4666 
L 4897 0 
L 4281 0 
L 4281 4097 
L 3078 897 
L 2444 897 
L 1241 4097 
L 1241 0 
L 628 0 
L 628 4666 
z
" transform="scale(0.015625)"/>
       <path id="DejaVuSans-52" d="M 2841 2188 
Q 3044 2119 3236 1894 
Q 3428 1669 3622 1275 
L 4263 0 
L 3584 0 
L 2988 1197 
Q 2756 1666 2539 1819 
Q 2322 1972 1947 1972 
L 1259 1972 
L 1259 0 
L 628 0 
L 628 4666 
L 2053 4666 
Q 2853 4666 3247 4331 
Q 3641 3997 3641 3322 
Q 3641 2881 3436 2590 
Q 3231 2300 2841 2188 
z
M 1259 4147 
L 1259 2491 
L 2053 2491 
Q 2509 2491 2742 2702 
Q 2975 2913 2975 3322 
Q 2975 3731 2742 3939 
Q 2509 4147 2053 4147 
L 1259 4147 
z
" transform="scale(0.015625)"/>
       <path id="DejaVuSans-49" d="M 628 4666 
L 1259 4666 
L 1259 0 
L 628 0 
L 628 4666 
z
" transform="scale(0.015625)"/>
      </defs>
      <use xlink:href="#DejaVuSans-4d"/>
      <use xlink:href="#DejaVuSans-52" x="86.279297"/>
      <use xlink:href="#DejaVuSans-49" x="155.761719"/>
     </g>
    </g>
    <g id="patch_25">
     <path d="M 321.594531 200.399844 
L 343.594531 200.399844 
L 343.594531 192.699844 
L 321.594531 192.699844 
z
" style="fill: #949494; stroke: #ffffff; stroke-linejoin: miter"/>
    </g>
    <g id="text_23">
     <!-- Mammography -->
     <g style="fill: #262626" transform="translate(352.394531 200.399844)scale(0.11 -0.11)">
      <defs>
       <path id="DejaVuSans-67" d="M 2906 1791 
Q 2906 2416 2648 2759 
Q 2391 3103 1925 3103 
Q 1463 3103 1205 2759 
Q 947 2416 947 1791 
Q 947 1169 1205 825 
Q 1463 481 1925 481 
Q 2391 481 2648 825 
Q 2906 1169 2906 1791 
z
M 3481 434 
Q 3481 -459 3084 -895 
Q 2688 -1331 1869 -1331 
Q 1566 -1331 1297 -1286 
Q 1028 -1241 775 -1147 
L 775 -588 
Q 1028 -725 1275 -790 
Q 1522 -856 1778 -856 
Q 2344 -856 2625 -561 
Q 2906 -266 2906 331 
L 2906 616 
Q 2728 306 2450 153 
Q 2172 0 1784 0 
Q 1141 0 747 490 
Q 353 981 353 1791 
Q 353 2603 747 3093 
Q 1141 3584 1784 3584 
Q 2172 3584 2450 3431 
Q 2728 3278 2906 2969 
L 2906 3500 
L 3481 3500 
L 3481 434 
z
" transform="scale(0.015625)"/>
       <path id="DejaVuSans-68" d="M 3513 2113 
L 3513 0 
L 2938 0 
L 2938 2094 
Q 2938 2591 2744 2837 
Q 2550 3084 2163 3084 
Q 1697 3084 1428 2787 
Q 1159 2491 1159 1978 
L 1159 0 
L 581 0 
L 581 4863 
L 1159 4863 
L 1159 2956 
Q 1366 3272 1645 3428 
Q 1925 3584 2291 3584 
Q 2894 3584 3203 3211 
Q 3513 2838 3513 2113 
z
" transform="scale(0.015625)"/>
      </defs>
      <use xlink:href="#DejaVuSans-4d"/>
      <use xlink:href="#DejaVuSans-61" x="86.279297"/>
      <use xlink:href="#DejaVuSans-6d" x="147.558594"/>
      <use xlink:href="#DejaVuSans-6d" x="244.970703"/>
      <use xlink:href="#DejaVuSans-6f" x="342.382812"/>
      <use xlink:href="#DejaVuSans-67" x="403.564453"/>
      <use xlink:href="#DejaVuSans-72" x="467.041016"/>
      <use xlink:href="#DejaVuSans-61" x="508.154297"/>
      <use xlink:href="#DejaVuSans-70" x="569.433594"/>
      <use xlink:href="#DejaVuSans-68" x="632.910156"/>
      <use xlink:href="#DejaVuSans-79" x="696.289062"/>
     </g>
    </g>
    <g id="patch_26">
     <path d="M 321.594531 216.545781 
L 343.594531 216.545781 
L 343.594531 208.845781 
L 321.594531 208.845781 
z
" style="fill: #ece133; stroke: #ffffff; stroke-linejoin: miter"/>
    </g>
    <g id="text_24">
     <!-- Digital Pathology -->
     <g style="fill: #262626" transform="translate(352.394531 216.545781)scale(0.11 -0.11)">
      <defs>
       <path id="DejaVuSans-50" d="M 1259 4147 
L 1259 2394 
L 2053 2394 
Q 2494 2394 2734 2622 
Q 2975 2850 2975 3272 
Q 2975 3691 2734 3919 
Q 2494 4147 2053 4147 
L 1259 4147 
z
M 628 4666 
L 2053 4666 
Q 2838 4666 3239 4311 
Q 3641 3956 3641 3272 
Q 3641 2581 3239 2228 
Q 2838 1875 2053 1875 
L 1259 1875 
L 1259 0 
L 628 0 
L 628 4666 
z
" transform="scale(0.015625)"/>
      </defs>
      <use xlink:href="#DejaVuSans-44"/>
      <use xlink:href="#DejaVuSans-69" x="77.001953"/>
      <use xlink:href="#DejaVuSans-67" x="104.785156"/>
      <use xlink:href="#DejaVuSans-69" x="168.261719"/>
      <use xlink:href="#DejaVuSans-74" x="196.044922"/>
      <use xlink:href="#DejaVuSans-61" x="235.253906"/>
      <use xlink:href="#DejaVuSans-6c" x="296.533203"/>
      <use xlink:href="#DejaVuSans-20" x="324.316406"/>
      <use xlink:href="#DejaVuSans-50" x="356.103516"/>
      <use xlink:href="#DejaVuSans-61" x="411.90625"/>
      <use xlink:href="#DejaVuSans-74" x="473.185547"/>
      <use xlink:href="#DejaVuSans-68" x="512.394531"/>
      <use xlink:href="#DejaVuSans-6f" x="575.773438"/>
      <use xlink:href="#DejaVuSans-6c" x="636.955078"/>
      <use xlink:href="#DejaVuSans-6f" x="664.738281"/>
      <use xlink:href="#DejaVuSans-67" x="725.919922"/>
      <use xlink:href="#DejaVuSans-79" x="789.396484"/>
     </g>
    </g>
    <g id="patch_27">
     <path d="M 321.594531 232.691719 
L 343.594531 232.691719 
L 343.594531 224.991719 
L 321.594531 224.991719 
z
" style="fill: #56b4e9; stroke: #ffffff; stroke-linejoin: miter"/>
    </g>
    <g id="text_25">
     <!-- Electron microscopy -->
     <g style="fill: #262626" transform="translate(352.394531 232.691719)scale(0.11 -0.11)">
      <defs>
       <path id="DejaVuSans-45" d="M 628 4666 
L 3578 4666 
L 3578 4134 
L 1259 4134 
L 1259 2753 
L 3481 2753 
L 3481 2222 
L 1259 2222 
L 1259 531 
L 3634 531 
L 3634 0 
L 628 0 
L 628 4666 
z
" transform="scale(0.015625)"/>
      </defs>
      <use xlink:href="#DejaVuSans-45"/>
      <use xlink:href="#DejaVuSans-6c" x="63.183594"/>
      <use xlink:href="#DejaVuSans-65" x="90.966797"/>
      <use xlink:href="#DejaVuSans-63" x="152.490234"/>
      <use xlink:href="#DejaVuSans-74" x="207.470703"/>
      <use xlink:href="#DejaVuSans-72" x="246.679688"/>
      <use xlink:href="#DejaVuSans-6f" x="285.542969"/>
      <use xlink:href="#DejaVuSans-6e" x="346.724609"/>
      <use xlink:href="#DejaVuSans-20" x="410.103516"/>
      <use xlink:href="#DejaVuSans-6d" x="441.890625"/>
      <use xlink:href="#DejaVuSans-69" x="539.302734"/>
      <use xlink:href="#DejaVuSans-63" x="567.085938"/>
      <use xlink:href="#DejaVuSans-72" x="622.066406"/>
      <use xlink:href="#DejaVuSans-6f" x="660.929688"/>
      <use xlink:href="#DejaVuSans-73" x="722.111328"/>
      <use xlink:href="#DejaVuSans-63" x="774.210938"/>
      <use xlink:href="#DejaVuSans-6f" x="829.191406"/>
      <use xlink:href="#DejaVuSans-70" x="890.373047"/>
      <use xlink:href="#DejaVuSans-79" x="953.849609"/>
     </g>
    </g>
    <g id="patch_28">
     <path d="M 321.594531 248.837656 
L 343.594531 248.837656 
L 343.594531 241.137656 
L 321.594531 241.137656 
z
" style="fill: #0173b2; stroke: #ffffff; stroke-linejoin: miter"/>
    </g>
    <g id="text_26">
     <!-- Fluorescence microscopy -->
     <g style="fill: #262626" transform="translate(352.394531 248.837656)scale(0.11 -0.11)">
      <defs>
       <path id="DejaVuSans-46" d="M 628 4666 
L 3309 4666 
L 3309 4134 
L 1259 4134 
L 1259 2759 
L 3109 2759 
L 3109 2228 
L 1259 2228 
L 1259 0 
L 628 0 
L 628 4666 
z
" transform="scale(0.015625)"/>
       <path id="DejaVuSans-75" d="M 544 1381 
L 544 3500 
L 1119 3500 
L 1119 1403 
Q 1119 906 1312 657 
Q 1506 409 1894 409 
Q 2359 409 2629 706 
Q 2900 1003 2900 1516 
L 2900 3500 
L 3475 3500 
L 3475 0 
L 2900 0 
L 2900 538 
Q 2691 219 2414 64 
Q 2138 -91 1772 -91 
Q 1169 -91 856 284 
Q 544 659 544 1381 
z
M 1991 3584 
L 1991 3584 
z
" transform="scale(0.015625)"/>
      </defs>
      <use xlink:href="#DejaVuSans-46"/>
      <use xlink:href="#DejaVuSans-6c" x="57.519531"/>
      <use xlink:href="#DejaVuSans-75" x="85.302734"/>
      <use xlink:href="#DejaVuSans-6f" x="148.681641"/>
      <use xlink:href="#DejaVuSans-72" x="209.863281"/>
      <use xlink:href="#DejaVuSans-65" x="248.726562"/>
      <use xlink:href="#DejaVuSans-73" x="310.25"/>
      <use xlink:href="#DejaVuSans-63" x="362.349609"/>
      <use xlink:href="#DejaVuSans-65" x="417.330078"/>
      <use xlink:href="#DejaVuSans-6e" x="478.853516"/>
      <use xlink:href="#DejaVuSans-63" x="542.232422"/>
      <use xlink:href="#DejaVuSans-65" x="597.212891"/>
      <use xlink:href="#DejaVuSans-20" x="658.736328"/>
      <use xlink:href="#DejaVuSans-6d" x="690.523438"/>
      <use xlink:href="#DejaVuSans-69" x="787.935547"/>
      <use xlink:href="#DejaVuSans-63" x="815.71875"/>
      <use xlink:href="#DejaVuSans-72" x="870.699219"/>
      <use xlink:href="#DejaVuSans-6f" x="909.5625"/>
      <use xlink:href="#DejaVuSans-73" x="970.744141"/>
      <use xlink:href="#DejaVuSans-63" x="1022.84375"/>
      <use xlink:href="#DejaVuSans-6f" x="1077.824219"/>
      <use xlink:href="#DejaVuSans-70" x="1139.005859"/>
      <use xlink:href="#DejaVuSans-79" x="1202.482422"/>
     </g>
    </g>
    <g id="patch_29">
     <path d="M 321.594531 264.983594 
L 343.594531 264.983594 
L 343.594531 257.283594 
L 321.594531 257.283594 
z
" style="fill: #de8f05; stroke: #ffffff; stroke-linejoin: miter"/>
    </g>
    <g id="text_27">
     <!-- Microscopy (EM &amp; LM) -->
     <g style="fill: #262626" transform="translate(352.394531 264.983594)scale(0.11 -0.11)">
      <defs>
       <path id="DejaVuSans-28" d="M 1984 4856 
Q 1566 4138 1362 3434 
Q 1159 2731 1159 2009 
Q 1159 1288 1364 580 
Q 1569 -128 1984 -844 
L 1484 -844 
Q 1016 -109 783 600 
Q 550 1309 550 2009 
Q 550 2706 781 3412 
Q 1013 4119 1484 4856 
L 1984 4856 
z
" transform="scale(0.015625)"/>
       <path id="DejaVuSans-26" d="M 1556 2509 
Q 1272 2256 1139 2004 
Q 1006 1753 1006 1478 
Q 1006 1022 1337 719 
Q 1669 416 2169 416 
Q 2466 416 2725 514 
Q 2984 613 3213 813 
L 1556 2509 
z
M 1997 2859 
L 3584 1234 
Q 3769 1513 3872 1830 
Q 3975 2147 3994 2503 
L 4575 2503 
Q 4538 2091 4375 1687 
Q 4213 1284 3922 891 
L 4794 0 
L 4006 0 
L 3559 459 
Q 3234 181 2878 45 
Q 2522 -91 2113 -91 
Q 1359 -91 881 339 
Q 403 769 403 1441 
Q 403 1841 612 2192 
Q 822 2544 1241 2853 
Q 1091 3050 1012 3245 
Q 934 3441 934 3628 
Q 934 4134 1281 4442 
Q 1628 4750 2203 4750 
Q 2463 4750 2720 4694 
Q 2978 4638 3244 4525 
L 3244 3956 
Q 2972 4103 2725 4179 
Q 2478 4256 2266 4256 
Q 1938 4256 1733 4082 
Q 1528 3909 1528 3634 
Q 1528 3475 1620 3314 
Q 1713 3153 1997 2859 
z
" transform="scale(0.015625)"/>
       <path id="DejaVuSans-4c" d="M 628 4666 
L 1259 4666 
L 1259 531 
L 3531 531 
L 3531 0 
L 628 0 
L 628 4666 
z
" transform="scale(0.015625)"/>
       <path id="DejaVuSans-29" d="M 513 4856 
L 1013 4856 
Q 1481 4119 1714 3412 
Q 1947 2706 1947 2009 
Q 1947 1309 1714 600 
Q 1481 -109 1013 -844 
L 513 -844 
Q 928 -128 1133 580 
Q 1338 1288 1338 2009 
Q 1338 2731 1133 3434 
Q 928 4138 513 4856 
z
" transform="scale(0.015625)"/>
      </defs>
      <use xlink:href="#DejaVuSans-4d"/>
      <use xlink:href="#DejaVuSans-69" x="86.279297"/>
      <use xlink:href="#DejaVuSans-63" x="114.0625"/>
      <use xlink:href="#DejaVuSans-72" x="169.042969"/>
      <use xlink:href="#DejaVuSans-6f" x="207.90625"/>
      <use xlink:href="#DejaVuSans-73" x="269.087891"/>
      <use xlink:href="#DejaVuSans-63" x="321.1875"/>
      <use xlink:href="#DejaVuSans-6f" x="376.167969"/>
      <use xlink:href="#DejaVuSans-70" x="437.349609"/>
      <use xlink:href="#DejaVuSans-79" x="500.826172"/>
      <use xlink:href="#DejaVuSans-20" x="560.005859"/>
      <use xlink:href="#DejaVuSans-28" x="591.792969"/>
      <use xlink:href="#DejaVuSans-45" x="630.806641"/>
      <use xlink:href="#DejaVuSans-4d" x="693.990234"/>
      <use xlink:href="#DejaVuSans-20" x="780.269531"/>
      <use xlink:href="#DejaVuSans-26" x="812.056641"/>
      <use xlink:href="#DejaVuSans-20" x="890.035156"/>
      <use xlink:href="#DejaVuSans-4c" x="921.822266"/>
      <use xlink:href="#DejaVuSans-4d" x="977.535156"/>
      <use xlink:href="#DejaVuSans-29" x="1063.814453"/>
     </g>
    </g>
    <g id="patch_30">
     <path d="M 321.594531 281.129531 
L 343.594531 281.129531 
L 343.594531 273.429531 
L 321.594531 273.429531 
z
" style="fill: #029e73; stroke: #ffffff; stroke-linejoin: miter"/>
    </g>
    <g id="text_28">
     <!-- Second harmonic generation (SHG) microscopy -->
     <g style="fill: #262626" transform="translate(352.394531 281.129531)scale(0.11 -0.11)">
      <defs>
       <path id="DejaVuSans-53" d="M 3425 4513 
L 3425 3897 
Q 3066 4069 2747 4153 
Q 2428 4238 2131 4238 
Q 1616 4238 1336 4038 
Q 1056 3838 1056 3469 
Q 1056 3159 1242 3001 
Q 1428 2844 1947 2747 
L 2328 2669 
Q 3034 2534 3370 2195 
Q 3706 1856 3706 1288 
Q 3706 609 3251 259 
Q 2797 -91 1919 -91 
Q 1588 -91 1214 -16 
Q 841 59 441 206 
L 441 856 
Q 825 641 1194 531 
Q 1563 422 1919 422 
Q 2459 422 2753 634 
Q 3047 847 3047 1241 
Q 3047 1584 2836 1778 
Q 2625 1972 2144 2069 
L 1759 2144 
Q 1053 2284 737 2584 
Q 422 2884 422 3419 
Q 422 4038 858 4394 
Q 1294 4750 2059 4750 
Q 2388 4750 2728 4690 
Q 3069 4631 3425 4513 
z
" transform="scale(0.015625)"/>
       <path id="DejaVuSans-64" d="M 2906 2969 
L 2906 4863 
L 3481 4863 
L 3481 0 
L 2906 0 
L 2906 525 
Q 2725 213 2448 61 
Q 2172 -91 1784 -91 
Q 1150 -91 751 415 
Q 353 922 353 1747 
Q 353 2572 751 3078 
Q 1150 3584 1784 3584 
Q 2172 3584 2448 3432 
Q 2725 3281 2906 2969 
z
M 947 1747 
Q 947 1113 1208 752 
Q 1469 391 1925 391 
Q 2381 391 2643 752 
Q 2906 1113 2906 1747 
Q 2906 2381 2643 2742 
Q 2381 3103 1925 3103 
Q 1469 3103 1208 2742 
Q 947 2381 947 1747 
z
" transform="scale(0.015625)"/>
       <path id="DejaVuSans-48" d="M 628 4666 
L 1259 4666 
L 1259 2753 
L 3553 2753 
L 3553 4666 
L 4184 4666 
L 4184 0 
L 3553 0 
L 3553 2222 
L 1259 2222 
L 1259 0 
L 628 0 
L 628 4666 
z
" transform="scale(0.015625)"/>
       <path id="DejaVuSans-47" d="M 3809 666 
L 3809 1919 
L 2778 1919 
L 2778 2438 
L 4434 2438 
L 4434 434 
Q 4069 175 3628 42 
Q 3188 -91 2688 -91 
Q 1594 -91 976 548 
Q 359 1188 359 2328 
Q 359 3472 976 4111 
Q 1594 4750 2688 4750 
Q 3144 4750 3555 4637 
Q 3966 4525 4313 4306 
L 4313 3634 
Q 3963 3931 3569 4081 
Q 3175 4231 2741 4231 
Q 1884 4231 1454 3753 
Q 1025 3275 1025 2328 
Q 1025 1384 1454 906 
Q 1884 428 2741 428 
Q 3075 428 3337 486 
Q 3600 544 3809 666 
z
" transform="scale(0.015625)"/>
      </defs>
      <use xlink:href="#DejaVuSans-53"/>
      <use xlink:href="#DejaVuSans-65" x="63.476562"/>
      <use xlink:href="#DejaVuSans-63" x="125"/>
      <use xlink:href="#DejaVuSans-6f" x="179.980469"/>
      <use xlink:href="#DejaVuSans-6e" x="241.162109"/>
      <use xlink:href="#DejaVuSans-64" x="304.541016"/>
      <use xlink:href="#DejaVuSans-20" x="368.017578"/>
      <use xlink:href="#DejaVuSans-68" x="399.804688"/>
      <use xlink:href="#DejaVuSans-61" x="463.183594"/>
      <use xlink:href="#DejaVuSans-72" x="524.462891"/>
      <use xlink:href="#DejaVuSans-6d" x="563.826172"/>
      <use xlink:href="#DejaVuSans-6f" x="661.238281"/>
      <use xlink:href="#DejaVuSans-6e" x="722.419922"/>
      <use xlink:href="#DejaVuSans-69" x="785.798828"/>
      <use xlink:href="#DejaVuSans-63" x="813.582031"/>
      <use xlink:href="#DejaVuSans-20" x="868.5625"/>
      <use xlink:href="#DejaVuSans-67" x="900.349609"/>
      <use xlink:href="#DejaVuSans-65" x="963.826172"/>
      <use xlink:href="#DejaVuSans-6e" x="1025.349609"/>
      <use xlink:href="#DejaVuSans-65" x="1088.728516"/>
      <use xlink:href="#DejaVuSans-72" x="1150.251953"/>
      <use xlink:href="#DejaVuSans-61" x="1191.365234"/>
      <use xlink:href="#DejaVuSans-74" x="1252.644531"/>
      <use xlink:href="#DejaVuSans-69" x="1291.853516"/>
      <use xlink:href="#DejaVuSans-6f" x="1319.636719"/>
      <use xlink:href="#DejaVuSans-6e" x="1380.818359"/>
      <use xlink:href="#DejaVuSans-20" x="1444.197266"/>
      <use xlink:href="#DejaVuSans-28" x="1475.984375"/>
      <use xlink:href="#DejaVuSans-53" x="1514.998047"/>
      <use xlink:href="#DejaVuSans-48" x="1578.474609"/>
      <use xlink:href="#DejaVuSans-47" x="1653.669922"/>
      <use xlink:href="#DejaVuSans-29" x="1731.160156"/>
      <use xlink:href="#DejaVuSans-20" x="1770.173828"/>
      <use xlink:href="#DejaVuSans-6d" x="1801.960938"/>
      <use xlink:href="#DejaVuSans-69" x="1899.373047"/>
      <use xlink:href="#DejaVuSans-63" x="1927.15625"/>
      <use xlink:href="#DejaVuSans-72" x="1982.136719"/>
      <use xlink:href="#DejaVuSans-6f" x="2021"/>
      <use xlink:href="#DejaVuSans-73" x="2082.181641"/>
      <use xlink:href="#DejaVuSans-63" x="2134.28125"/>
      <use xlink:href="#DejaVuSans-6f" x="2189.261719"/>
      <use xlink:href="#DejaVuSans-70" x="2250.443359"/>
      <use xlink:href="#DejaVuSans-79" x="2313.919922"/>
     </g>
    </g>
    <g id="patch_31">
     <path d="M 321.594531 297.275469 
L 343.594531 297.275469 
L 343.594531 289.575469 
L 321.594531 289.575469 
z
" style="fill: #d55e00; stroke: #ffffff; stroke-linejoin: miter"/>
    </g>
    <g id="text_29">
     <!-- Time-lapse microscopy -->
     <g style="fill: #262626" transform="translate(352.394531 297.275469)scale(0.11 -0.11)">
      <use xlink:href="#DejaVuSans-54"/>
      <use xlink:href="#DejaVuSans-69" x="57.958984"/>
      <use xlink:href="#DejaVuSans-6d" x="85.742188"/>
      <use xlink:href="#DejaVuSans-65" x="183.154297"/>
      <use xlink:href="#DejaVuSans-2d" x="244.677734"/>
      <use xlink:href="#DejaVuSans-6c" x="280.761719"/>
      <use xlink:href="#DejaVuSans-61" x="308.544922"/>
      <use xlink:href="#DejaVuSans-70" x="369.824219"/>
      <use xlink:href="#DejaVuSans-73" x="433.300781"/>
      <use xlink:href="#DejaVuSans-65" x="485.400391"/>
      <use xlink:href="#DejaVuSans-20" x="546.923828"/>
      <use xlink:href="#DejaVuSans-6d" x="578.710938"/>
      <use xlink:href="#DejaVuSans-69" x="676.123047"/>
      <use xlink:href="#DejaVuSans-63" x="703.90625"/>
      <use xlink:href="#DejaVuSans-72" x="758.886719"/>
      <use xlink:href="#DejaVuSans-6f" x="797.75"/>
      <use xlink:href="#DejaVuSans-73" x="858.931641"/>
      <use xlink:href="#DejaVuSans-63" x="911.03125"/>
      <use xlink:href="#DejaVuSans-6f" x="966.011719"/>
      <use xlink:href="#DejaVuSans-70" x="1027.193359"/>
      <use xlink:href="#DejaVuSans-79" x="1090.669922"/>
     </g>
    </g>
    <g id="patch_32">
     <path d="M 321.594531 313.421406 
L 343.594531 313.421406 
L 343.594531 305.721406 
L 321.594531 305.721406 
z
" style="fill: #cc78bc; stroke: #ffffff; stroke-linejoin: miter"/>
    </g>
    <g id="text_30">
     <!-- Ultrasound imaging -->
     <g style="fill: #262626" transform="translate(352.394531 313.421406)scale(0.11 -0.11)">
      <defs>
       <path id="DejaVuSans-55" d="M 556 4666 
L 1191 4666 
L 1191 1831 
Q 1191 1081 1462 751 
Q 1734 422 2344 422 
Q 2950 422 3222 751 
Q 3494 1081 3494 1831 
L 3494 4666 
L 4128 4666 
L 4128 1753 
Q 4128 841 3676 375 
Q 3225 -91 2344 -91 
Q 1459 -91 1007 375 
Q 556 841 556 1753 
L 556 4666 
z
" transform="scale(0.015625)"/>
      </defs>
      <use xlink:href="#DejaVuSans-55"/>
      <use xlink:href="#DejaVuSans-6c" x="73.193359"/>
      <use xlink:href="#DejaVuSans-74" x="100.976562"/>
      <use xlink:href="#DejaVuSans-72" x="140.185547"/>
      <use xlink:href="#DejaVuSans-61" x="181.298828"/>
      <use xlink:href="#DejaVuSans-73" x="242.578125"/>
      <use xlink:href="#DejaVuSans-6f" x="294.677734"/>
      <use xlink:href="#DejaVuSans-75" x="355.859375"/>
      <use xlink:href="#DejaVuSans-6e" x="419.238281"/>
      <use xlink:href="#DejaVuSans-64" x="482.617188"/>
      <use xlink:href="#DejaVuSans-20" x="546.09375"/>
      <use xlink:href="#DejaVuSans-69" x="577.880859"/>
      <use xlink:href="#DejaVuSans-6d" x="605.664062"/>
      <use xlink:href="#DejaVuSans-61" x="703.076172"/>
      <use xlink:href="#DejaVuSans-67" x="764.355469"/>
      <use xlink:href="#DejaVuSans-69" x="827.832031"/>
      <use xlink:href="#DejaVuSans-6e" x="855.615234"/>
      <use xlink:href="#DejaVuSans-67" x="918.994141"/>
     </g>
    </g>
   </g>
  </g>
 </g>
</svg>
